<?xml version="1.0" encoding="utf-8"?>
<!-- Generator: Adobe Illustrator 23.0.6, SVG Export Plug-In . SVG Version: 6.00 Build 0)  -->
<svg version="1.1" id="Capa_1" xmlns="http://www.w3.org/2000/svg" xmlns:xlink="http://www.w3.org/1999/xlink" x="0px" y="0px"
	 viewBox="0 0 512 510.3" style="enable-background:new 0 0 512 510.3;" xml:space="preserve">
<style type="text/css">
	.st0{fill:#34CD79;}
</style>
<title>exit</title>
<path class="st0" d="M255.1,467.8H63.8c-11.7,0-21.3-9.5-21.3-21.3V63.8c0-11.7,9.5-21.3,21.3-21.3h191.4
	c11.7-0.3,21.1-10,20.8-21.7C275.7,9.4,266.5,0.2,255.1,0H63.8C28.6,0,0,28.6,0,63.8v382.7c0,35.2,28.6,63.7,63.8,63.8h191.4
	c11.7,0,21.3-9.5,21.3-21.2C276.4,477.3,266.9,467.8,255.1,467.8C255.2,467.8,255.2,467.8,255.1,467.8z"/>
<path class="st0" d="M505.7,240L376.4,112.4c-8.2-8.4-21.7-8.6-30.1-0.4s-8.6,21.7-0.4,30.1c0.2,0.2,0.4,0.4,0.6,0.6l92.4,91.2
	H191.4c-11.7,0-21.3,9.5-21.2,21.3c0,11.7,9.5,21.2,21.2,21.2h247.6l-92.4,91.2c-8.4,8.2-8.6,21.7-0.4,30.1
	c8.2,8.4,21.7,8.6,30.1,0.4c0.1-0.1,0.1-0.1,0.2-0.2l129.3-127.6c8.4-8.2,8.5-21.7,0.2-30.1C505.8,240.2,505.7,240.1,505.7,240
	L505.7,240z"/>
</svg>
